<svg viewBox="0 0 80 80" xmlns="http://www.w3.org/2000/svg" data-sanitized-data-name="Layer 2" data-name="Layer 2" id="Layer_2">
  <defs>
    <style>
      .cls-1 {
        fill: none;
      }

      .cls-2 {
        fill: #81f5d2;
        fill-rule: evenodd;
      }
    </style>
  </defs>
  <g id="sl_color">
    <g id="streamlabs">
      <g>
        <path d="M21.66,45.59c0-7.07,0-10.61,1.39-13.31,1.22-2.38,3.16-4.31,5.55-5.52,2.72-1.38,6.28-1.38,13.4-1.38h10.17c7.12,0,10.68,0,13.4,1.38,2.39,1.21,4.34,3.14,5.55,5.52,1.39,2.7,1.39,6.24,1.39,13.31v2.89c0,7.07,0,10.61-1.39,13.31-1.22,2.38-3.16,4.31-5.55,5.52-2.72,1.38-6.28,1.38-13.4,1.38h-18.88c-4.07,0-6.1,0-7.66-.79-1.37-.69-2.48-1.8-3.17-3.15-.79-1.54-.79-3.57-.79-7.61v-11.55h0Zm18.16,1.45c0-1.99,1.63-3.61,3.63-3.61s3.63,1.62,3.63,3.61v7.22c0,1.99-1.63,3.61-3.63,3.61s-3.63-1.62-3.63-3.61v-7.22Zm18.16-3.61c-2.01,0-3.63,1.62-3.63,3.61v7.22c0,1.99,1.63,3.61,3.63,3.61s3.63-1.62,3.63-3.61v-7.22c0-2-1.63-3.61-3.63-3.61Z" class="cls-2" id="path905"></path>
        <path d="M34.34,14.47c.25,1.98-1.17,3.78-3.16,4.03-1.1,.14-1.98,.32-2.76,.56-6.27,1.94-11.17,6.82-13.13,13.05-.24,.78-.43,1.65-.57,2.74-.25,1.98-2.06,3.38-4.05,3.14-1.99-.25-3.4-2.05-3.16-4.03,.18-1.42,.44-2.73,.84-4,2.66-8.49,9.35-15.14,17.9-17.79,1.28-.4,2.59-.66,4.02-.83,2.01-.25,3.83,1.16,4.07,3.13h0Z" class="cls-2" id="path907"></path>
      </g>
      <rect height="80" width="80" class="cls-1"></rect>
    </g>
  </g>
</svg>