<svg viewBox="0 0 80 80" xmlns="http://www.w3.org/2000/svg" data-sanitized-data-name="Layer 2" data-name="Layer 2" id="Layer_2">
  <defs>
    <style>
      .cls-1 {
        fill: none;
      }

      .cls-2 {
        fill: #fff;
      }

      .cls-3 {
        fill: red;
      }
    </style>
  </defs>
  <g id="yt_color">
    <g id="youtube">
      <g>
        <path d="M71.14,24.35c-.75-2.8-2.95-5-5.75-5.75-5.07-1.36-25.39-1.36-25.39-1.36,0,0-20.33,0-25.39,1.36-2.8,.75-5,2.95-5.75,5.75-1.36,5.07-1.36,15.65-1.36,15.65,0,0,0,10.58,1.36,15.65,.75,2.8,2.95,5,5.75,5.75,5.07,1.36,25.39,1.36,25.39,1.36,0,0,20.33,0,25.39-1.36,2.8-.75,5-2.95,5.75-5.75,1.36-5.07,1.36-15.65,1.36-15.65,0,0,0-10.58-1.36-15.65Z" class="cls-3"></path>
        <path d="M33.49,49.75l16.89-9.75-16.89-9.75v19.5h0Z" class="cls-2"></path>
      </g>
      <rect height="80" width="80" class="cls-1"></rect>
    </g>
  </g>
</svg>