<svg viewBox="0 0 80 80" xmlns:xlink="http://www.w3.org/1999/xlink" xmlns="http://www.w3.org/2000/svg" data-sanitized-data-name="Layer 2" data-name="Layer 2" id="Layer_2">
  <defs>
    <style>
      .cls-1 {
        fill: none;
      }

      .cls-2 {
        clip-path: url(#clippath);
      }

      .cls-3 {
        clip-path: url(#clippath-1);
      }

      .cls-4 {
        fill: url(#radial-gradient-6);
      }

      .cls-5 {
        fill: url(#radial-gradient-5);
      }

      .cls-6 {
        fill: url(#radial-gradient-3);
      }

      .cls-7 {
        fill: url(#radial-gradient-4);
      }

      .cls-8 {
        fill: url(#radial-gradient-2);
      }

      .cls-9 {
        fill: url(#radial-gradient);
      }
    </style>
    <radialGradient gradientUnits="userSpaceOnUse" gradientTransform="translate(-18 -816) scale(1 -1)" r="32.5" fy="-856" fx="58" cy="-856" cx="58" id="radial-gradient">
      <stop stop-color="#000" offset=".91"></stop>
      <stop stop-opacity="0" stop-color="#000" offset="1"></stop>
    </radialGradient>
    <radialGradient gradientUnits="userSpaceOnUse" gradientTransform="translate(-18 -816) scale(1 -1)" r="31.83" fy="-856" fx="58" cy="-856" cx="58" id="radial-gradient-2">
      <stop stop-color="#fff" offset=".99"></stop>
      <stop stop-color="#fdfdfd" offset="1"></stop>
      <stop stop-color="#f6f6f6" offset="1"></stop>
      <stop stop-color="#ebebeb" offset="1"></stop>
      <stop stop-color="#dadada" offset="1"></stop>
      <stop stop-color="#c7c7c7" offset="1"></stop>
    </radialGradient>
    <radialGradient gradientUnits="userSpaceOnUse" gradientTransform="translate(-18 -816) scale(1 -1)" r="29.07" fy="-856" fx="58" cy="-856" cx="58" id="radial-gradient-3">
      <stop stop-opacity=".5" stop-color="#000" offset=".99"></stop>
      <stop stop-opacity="0" stop-color="#000" offset="1"></stop>
    </radialGradient>
    <clipPath id="clippath">
      <path d="M10.93,40c0,16.06,13.02,29.07,29.07,29.07s29.07-13.01,29.07-29.07-13.02-29.07-29.07-29.07S10.93,23.94,10.93,40" class="cls-1"></path>
    </clipPath>
    <radialGradient xlink:href="#radial-gradient-3" gradientTransform="translate(0 -796) scale(1 -1)" r="29.07" fy="-836" fx="40" cy="-836" cx="40" id="radial-gradient-4"></radialGradient>
    <clipPath id="clippath-1">
      <path d="M11.17,40c0,15.92,12.91,28.83,28.83,28.83s28.83-12.91,28.83-28.83-12.91-28.83-28.83-28.83S11.17,24.08,11.17,40" class="cls-1"></path>
    </clipPath>
    <radialGradient gradientUnits="userSpaceOnUse" gradientTransform="translate(209102.28 35813.24) scale(94.65)" r=".3" fy="-377.91" fx="-2208.74" cy="-377.91" cx="-2208.74" id="radial-gradient-5">
      <stop stop-color="#000" offset="0"></stop>
      <stop stop-color="#322f32" offset="1"></stop>
    </radialGradient>
    <radialGradient gradientUnits="userSpaceOnUse" gradientTransform="translate(-18 -798.04) scale(1 -1.1)" r="23.18" fy="-761.9" fx="62.34" cy="-761.9" cx="62.34" id="radial-gradient-6">
      <stop stop-color="#c2c0c2" offset="0"></stop>
      <stop stop-color="#ebebeb" offset="1"></stop>
    </radialGradient>
  </defs>
  <g id="obs_color">
    <g id="obs">
      <g>
        <path shape-rendering="geometricPrecision" d="M40,7.5c17.95,0,32.5,14.55,32.5,32.5s-14.55,32.5-32.5,32.5S7.5,57.95,7.5,40,22.05,7.5,40,7.5" class="cls-9"></path>
        <g>
          <path shape-rendering="geometricPrecision" d="M40,8.17c17.58,0,31.83,14.25,31.83,31.83s-14.25,31.83-31.83,31.83-31.83-14.25-31.83-31.83S22.42,8.17,40,8.17" class="cls-8"></path>
          <path shape-rendering="geometricPrecision" d="M10.93,40c0,16.06,13.02,29.07,29.07,29.07s29.07-13.01,29.07-29.07-13.02-29.07-29.07-29.07S10.93,23.94,10.93,40" class="cls-6" id="SVGID-2"></path>
          <g class="cls-2">
            <rect shape-rendering="geometricPrecision" height="58.14" width="58.14" y="10.93" x="10.93" class="cls-7"></rect>
          </g>
          <g class="cls-3">
            <rect shape-rendering="geometricPrecision" height="57.66" width="57.66" y="11.17" x="11.17" class="cls-5"></rect>
          </g>
          <path shape-rendering="geometricPrecision" d="M51.31,30.73c-3.59,6.25-11.56,8.4-17.8,4.82-.12-.07-.23-.13-.34-.2-1.09-.68-2.09-1.51-2.94-2.47-2.25-2.54-3.42-5.85-3.27-9.24,.02-.38,.05-.76,.1-1.13,.05-.37,.11-.74,.19-1.1,.08-.37,.18-.74,.3-1.11,.11-.36,.24-.71,.38-1.05,.15-.36,.31-.71,.49-1.06,.19-.36,.4-.72,.62-1.06,.21-.32,.42-.62,.66-.92,.25-.32,.52-.64,.8-.93,.29-.3,.58-.59,.89-.86,.32-.28,.65-.54,.99-.79,.18-.13,.36-.25,.54-.37-7.73,3.95-10.9,13.35-7.14,21.17,.04,.07,.07,.15,.11,.22,.02,.03,.03,.07,.05,.1,.01,.02,.02,.04,.03,.06,.02,.02,.03,.02,.06,.02h.51c.31,0,.62,.02,.93,.05,5.91,.56,10.7,5.03,11.66,10.89,.21,1.3,.23,2.63,.04,3.94-.35,2.47-1.4,4.78-3.02,6.67-.93,1.08-2.03,2.01-3.26,2.74-2.45,1.45-5.3,2.05-8.13,1.73-.51-.06-1.02-.15-1.52-.26-.32-.08-.65-.17-.96-.27,1.43,.63,2.94,1.05,4.49,1.24,1.44,.18,2.91,.16,4.35-.05,2.58-.38,5.02-1.39,7.11-2.94,1.54-1.13,2.86-2.53,3.91-4.13,.05-.07,.09-.14,.13-.21,.02-.03,.06-.07,.05-.1-.02-.05-.04-.09-.07-.13-.09-.16-.17-.33-.25-.5-.16-.34-.31-.68-.44-1.03-.27-.71-.47-1.44-.61-2.18-.3-1.6-.3-3.24,0-4.84,.26-1.36,.73-2.67,1.4-3.88,2.28-4.13,6.61-6.72,11.33-6.75,.32,0,.64,0,.96,.03,.31,.02,.62,.05,.92,.09,.3,.04,.61,.09,.91,.16,.29,.06,.59,.13,.87,.22,.28,.08,.56,.17,.84,.27s.56,.21,.83,.33c.28,.12,.55,.25,.82,.4,.27,.14,.53,.29,.79,.45,.24,.15,.48,.31,.71,.47,.24,.17,.47,.35,.7,.54,.24,.19,.46,.39,.68,.6,.24,.22,.46,.45,.68,.69,.22,.24,.43,.48,.63,.74,.22,.28,.43,.57,.63,.87,.2,.31,.4,.63,.57,.95,.25,.45,.47,.92,.66,1.4,.21,.52,.38,1.05,.52,1.6-.38-2.9-1.55-5.64-3.38-7.92-1.35-1.68-3.02-3.07-4.91-4.09-1.94-1.05-4.08-1.68-6.28-1.85-.14-.02-.33-.03-.52-.04h0Z" class="cls-4"></path>
        </g>
      </g>
      <rect height="80" width="80" class="cls-1"></rect>
    </g>
  </g>
</svg>