<?xml version="1.0" encoding="UTF-8"?>
<svg version="1.1" xmlns="http://www.w3.org/2000/svg" width="225" height="253">
<path d="M0 0 C10.22892151 8.37901018 17.25760245 18.11667108 23.9375 29.40625 C24.56398437 30.46199219 24.56398437 30.46199219 25.203125 31.5390625 C28.58215921 37.73395855 30.15720037 44.61938006 31.9375 51.40625 C32.20445679 52.2720166 32.20445679 52.2720166 32.47680664 53.15527344 C33.54258756 58.36274563 33.16389541 63.84416426 33.17773438 69.14794922 C33.18734827 71.37116245 33.21834893 73.59341336 33.25 75.81640625 C33.41664324 98.12645354 24.50973963 119.21258297 8.9375 135.40625 C8.2775 135.40625 7.6175 135.40625 6.9375 135.40625 C6.6075 136.39625 6.2775 137.38625 5.9375 138.40625 C5.2775 138.40625 4.6175 138.40625 3.9375 138.40625 C3.9375 139.06625 3.9375 139.72625 3.9375 140.40625 C3.2775 140.40625 2.6175 140.40625 1.9375 140.40625 C1.9375 141.06625 1.9375 141.72625 1.9375 142.40625 C-11.255939 153.29535547 -26.36885166 160.13044539 -43.0625 163.40625 C-44.01125 163.59832031 -44.96 163.79039062 -45.9375 163.98828125 C-68.05778472 166.94686933 -89.55742324 161.9677547 -109.0625 151.40625 C-109.0625 150.74625 -109.0625 150.08625 -109.0625 149.40625 C-110.114375 149.035 -110.114375 149.035 -111.1875 148.65625 C-114.45764548 147.23444762 -117.203622 145.53378712 -120.0625 143.40625 C-120.0625 142.74625 -120.0625 142.08625 -120.0625 141.40625 C-120.61421875 141.1896875 -121.1659375 140.973125 -121.734375 140.75 C-124.86806389 138.94129366 -126.89646506 136.59073326 -129.3125 133.90625 C-130.00085938 133.15794922 -130.00085938 133.15794922 -130.703125 132.39453125 C-134.0625 128.66522507 -134.0625 128.66522507 -134.0625 126.40625 C-134.7225 126.40625 -135.3825 126.40625 -136.0625 126.40625 C-143.98696769 113.11359452 -149.48141543 100.78811885 -152.0625 85.40625 C-152.24941406 84.42527344 -152.43632812 83.44429688 -152.62890625 82.43359375 C-155.85003341 59.94374195 -149.43723947 36.45912423 -136.234375 18.14453125 C-133.53105815 14.7362127 -130.68138622 11.4941892 -127.75 8.28125 C-127.22204834 7.70012451 -126.69409668 7.11899902 -126.15014648 6.52026367 C-124.83124513 5.10689672 -123.45140096 3.7508916 -122.0625 2.40625 C-121.4025 2.40625 -120.7425 2.40625 -120.0625 2.40625 C-120.0625 1.74625 -120.0625 1.08625 -120.0625 0.40625 C-118.13536353 -1.13123035 -116.22547396 -2.52933978 -114.1875 -3.90625 C-113.59251709 -4.31069336 -112.99753418 -4.71513672 -112.38452148 -5.13183594 C-77.17779371 -28.67547825 -33.08905779 -25.32325851 0 0 Z M-104.0625 11.40625 C-104.0625 12.06625 -104.0625 12.72625 -104.0625 13.40625 C-104.7225 13.40625 -105.3825 13.40625 -106.0625 13.40625 C-106.88087442 14.81953129 -107.69196219 16.23703346 -108.5 17.65625 C-108.95246094 18.44515625 -109.40492187 19.2340625 -109.87109375 20.046875 C-112.66323883 25.57623772 -113.14099936 31.84251297 -111.34375 37.78125 C-109.28820124 42.68804382 -106.77432549 46.59674489 -103.0625 50.40625 C-102.4025 50.40625 -101.7425 50.40625 -101.0625 50.40625 C-101.0625 51.06625 -101.0625 51.72625 -101.0625 52.40625 C-93.57616452 56.14941774 -85.26604956 57.6435817 -77.0625 55.40625 C-69.26992497 51.27361922 -63.38934497 46.07326034 -60.5703125 37.53515625 C-58.74505161 29.88310096 -60.27374418 23.23294113 -64.0625 16.40625 C-65.92620181 14.01481629 -67.69966454 12.35815755 -70.0625 10.40625 C-70.7225 10.40625 -71.3825 10.40625 -72.0625 10.40625 C-72.0625 9.74625 -72.0625 9.08625 -72.0625 8.40625 C-84.06496528 3.53568438 -93.10645721 4.83262433 -104.0625 11.40625 Z M-35.0625 22.40625 C-35.0625 23.06625 -35.0625 23.72625 -35.0625 24.40625 C-35.64 24.633125 -36.2175 24.86 -36.8125 25.09375 C-41.85494442 28.03517591 -43.9595521 32.61817016 -45.5859375 38.015625 C-47.00520718 45.13524013 -44.95841212 52.38142416 -41.0625 58.40625 C-35.78646229 64.24399515 -30.93441701 67.88054754 -22.94921875 68.7421875 C-14.48988663 68.84547605 -8.36256925 68.11685457 -1.83984375 62.48828125 C3.58818386 56.92233643 6.7010095 51.16801845 7.0234375 43.3125 C6.47349037 36.01846437 3.5248042 29.51203487 -1.8125 24.53125 C-12.15098559 16.32519606 -23.53206346 16.64103173 -35.0625 22.40625 Z M-68.89453125 64.71484375 C-71.16289529 67.99979903 -71.36024823 71.50716598 -71.0625 75.40625 C-69.74801305 78.96309704 -68.47620246 80.11762038 -65.375 82.28125 C-61.28416717 83.67058945 -58.15890345 83.86488407 -54.0625 82.40625 C-51.43107264 79.77482264 -49.17733945 77.23291496 -48.9375 73.41796875 C-49.18789245 68.71470409 -49.18789245 68.71470409 -51.4453125 64.703125 C-54.48321985 62.3327399 -56.80081158 61.45216025 -60.625 60.78125 C-64.08414731 61.41018588 -66.30814348 62.28100432 -68.89453125 64.71484375 Z M-120.51953125 84.4296875 C-125.30479302 90.5596684 -125.68561522 96.04429585 -125.55859375 103.61328125 C-124.84417532 109.07548831 -122.7689386 113.32532667 -119.0625 117.40625 C-118.4025 117.40625 -117.7425 117.40625 -117.0625 117.40625 C-117.0625 118.06625 -117.0625 118.72625 -117.0625 119.40625 C-109.93418525 125.08413842 -102.97480796 126.12960731 -94.0625 125.40625 C-86.43472204 123.89180957 -80.59704798 118.92191332 -76.125 112.71875 C-72.96909086 105.85000658 -72.844837 97.10270805 -75.25 89.96875 C-78.456199 83.6669106 -84.3837986 78.01284535 -91.0625 75.40625 C-103.3663206 74.26108921 -111.63041006 75.51945201 -120.51953125 84.4296875 Z M-54.43359375 98.046875 C-58.5670034 104.03387602 -60.17252509 110.15408608 -59.0625 117.40625 C-56.87157795 124.52085708 -53.17535024 130.66961224 -46.75 134.65625 C-38.96420142 138.66660746 -31.30986442 139.37613968 -22.89453125 136.72265625 C-16.09872864 133.76510192 -11.02778408 128.26452022 -8.125 121.46875 C-5.87297074 114.2481812 -6.56843002 107.72561547 -9.60546875 100.8359375 C-13.25425117 94.75137271 -19.14456501 89.87730258 -25.97265625 87.80859375 C-37.61902815 85.56639505 -46.96562971 88.81375583 -54.43359375 98.046875 Z " fill="#ED135A" transform="translate(172.0625,54.59375)"/>
<path d="M0 0 C10.94522236 2.16607099 21.65743074 4.73013196 32 9 C32 9.66 32 10.32 32 11 C32.556875 11.226875 33.11375 11.45375 33.6875 11.6875 C40.47130764 15.5377692 44.76655406 22.54061851 46.8125 29.9375 C46.874375 30.948125 46.93625 31.95875 47 33 C47.061875 33.64582031 47.12375 34.29164062 47.1875 34.95703125 C47.51136997 40.89802102 46.45199833 46.4159893 45.1875 52.1875 C45.0222583 52.94772461 44.8570166 53.70794922 44.68676758 54.49121094 C43.57994093 59.2685352 42.05781592 63.54827787 40 68 C39.34 68 38.68 68 38 68 C37.91363281 67.22398438 37.82726562 66.44796875 37.73828125 65.6484375 C35.09727574 45.34419327 25.06227572 22.93347506 9.0625 9.5 C5.88962925 6.78378542 2.86321808 4.04216921 0 1 C0 0.67 0 0.34 0 0 Z " fill="#221E1F" transform="translate(173,46)"/>
<path d="M0 0 C0.66 0 1.32 0 2 0 C-3.57618013 27.22836896 -3.57618013 27.22836896 -12 37 C-14.1875 38.25 -14.1875 38.25 -16 39 C-16 39.66 -16 40.32 -16 41 C-17.6029053 41.81498562 -19.20737278 42.62689927 -20.8125 43.4375 C-21.70582031 43.88996094 -22.59914062 44.34242188 -23.51953125 44.80859375 C-36.97537026 51.27163454 -52.71985879 45.10579671 -66 41 C-66 40.34 -66 39.68 -66 39 C-65.01902344 38.78085938 -64.03804688 38.56171875 -63.02734375 38.3359375 C-49.45113653 35.19292001 -37.17979669 30.73153316 -25.29296875 23.3203125 C-23 22 -23 22 -21 22 C-21 21.34 -21 20.68 -21 20 C-19.3203125 18.4921875 -19.3203125 18.4921875 -17.125 16.875 C-16.40570313 16.33617187 -15.68640625 15.79734375 -14.9453125 15.2421875 C-13 14 -13 14 -11 14 C-10.731875 13.360625 -10.46375 12.72125 -10.1875 12.0625 C-9 10 -9 10 -6 9 C-5.29605388 7.68596724 -4.63654342 6.3479743 -4 5 C-2 2.25 -2 2.25 0 0 Z " fill="#211D1E" transform="translate(192,186)"/>
<path d="M0 0 C1.2521228 0.31928467 1.2521228 0.31928467 2.52954102 0.64501953 C4.87109375 1.30078125 4.87109375 1.30078125 8.5625 2.6875 C9.0575 4.1725 9.0575 4.1725 9.5625 5.6875 C8.77488281 5.85765625 7.98726563 6.0278125 7.17578125 6.203125 C-6.07581067 8.93989485 -6.07581067 8.93989485 -18.62109375 13.80859375 C-20.4375 14.6875 -20.4375 14.6875 -23.4375 14.6875 C-23.4375 15.3475 -23.4375 16.0075 -23.4375 16.6875 C-23.93636719 16.93242188 -24.43523437 17.17734375 -24.94921875 17.4296875 C-34.69028375 22.50133714 -49.34817834 31.50885668 -54.4375 41.6875 C-55.0975 41.6875 -55.7575 41.6875 -56.4375 41.6875 C-51.27858256 12.67617603 -51.27858256 12.67617603 -39.4375 3.6875 C-26.96681808 -4.40787488 -13.98766534 -3.63188504 0 0 Z " fill="#221E1F" transform="translate(88.4375,22.3125)"/>
<path d="M0 0 C0.99 0 1.98 0 3 0 C3.25523438 1.34191406 3.25523438 1.34191406 3.515625 2.7109375 C5.01507987 10.19226018 6.79498242 17.07302652 10 24 C10.36996094 24.80824219 10.73992188 25.61648437 11.12109375 26.44921875 C15.63437063 35.87530849 21.01530903 44.22484369 28.0625 51.9375 C28.55693604 52.48124268 29.05137207 53.02498535 29.56079102 53.58520508 C32.00028379 56.17820129 34.3602563 58.34000635 37.37109375 60.25390625 C38.67240234 61.11822266 38.67240234 61.11822266 40 62 C40 62.66 40 63.32 40 64 C28.14269045 62.53749365 15.22130909 59.98906289 6 52 C5.43152344 51.55011719 4.86304688 51.10023438 4.27734375 50.63671875 C-1.5173465 45.58238205 -3.8572705 39.29238407 -4.3828125 31.7265625 C-4.79835817 20.66065009 -3.04093013 10.60252871 0 0 Z " fill="#211D1E" transform="translate(10,142)"/>
</svg>
