<?xml version="1.0" encoding="UTF-8"?>
<svg id="Layer_1" data-name="Layer 1" xmlns="http://www.w3.org/2000/svg" width="80" height="80" xmlns:xlink="http://www.w3.org/1999/xlink" viewBox="0 0 80 80">
  <defs>
    <style>
      .cls-1 {
        fill: url(#linear-gradient-2);
      }

      .cls-2 {
        fill: #fff;
      }

      .cls-3 {
        mask: url(#mask);
      }

      .cls-4 {
        fill: url(#linear-gradient-4);
      }

      .cls-5 {
        fill: url(#linear-gradient-3);
      }

      .cls-6 {
        fill: url(#linear-gradient-5);
      }

      .cls-7 {
        fill: #ff4800;
      }

      .cls-8 {
        fill: url(#linear-gradient);
      }
    </style>
    <linearGradient id="linear-gradient" x1="40" y1="95.4358" x2="40" y2="-21.0077" gradientTransform="translate(0 82) scale(1 -1)" gradientUnits="userSpaceOnUse">
      <stop offset=".3" stop-color="#00adff"/>
      <stop offset="1" stop-color="#1542ff"/>
    </linearGradient>
    <mask id="mask" x="7.8636" y="11.4737" width="64.2424" height="62.7838" maskUnits="userSpaceOnUse">
      <g id="mask0_131_34" data-name="mask0 131 34">
        <path class="cls-2" d="M39.9989,74.214c17.3361,0,31.3898-14.0454,31.3898-31.3703s-14.0537-31.37-31.3898-31.37-31.3899,14.0448-31.3899,31.37,14.0537,31.3703,31.3899,31.3703Z"/>
      </g>
    </mask>
    <linearGradient id="linear-gradient-2" x1="39.9848" y1="38.9945" x2="39.9848" y2="-2.8542" gradientTransform="translate(0 82) scale(1 -1)" gradientUnits="userSpaceOnUse">
      <stop offset="0" stop-color="#fce3ad"/>
      <stop offset=".07" stop-color="#fce2a4"/>
      <stop offset=".19" stop-color="#fce08b"/>
      <stop offset=".33" stop-color="#fcdd64"/>
      <stop offset=".48" stop-color="#fcda32"/>
      <stop offset=".66" stop-color="#f9bc22"/>
      <stop offset="1" stop-color="#f57700"/>
    </linearGradient>
    <linearGradient id="linear-gradient-3" x1="39.9991" y1="28.2876" x2="39.9991" y2="4.504" gradientTransform="translate(0 82) scale(1 -1)" gradientUnits="userSpaceOnUse">
      <stop offset="0" stop-color="#fcd619"/>
      <stop offset=".35" stop-color="#f9b811"/>
      <stop offset="1" stop-color="#f57700"/>
    </linearGradient>
    <linearGradient id="linear-gradient-4" x1="39.9995" y1="16.3957" x2="39.9995" y2="5.4316" gradientTransform="translate(0 82) scale(1 -1)" gradientUnits="userSpaceOnUse">
      <stop offset="0" stop-color="#f57700"/>
      <stop offset="1" stop-color="#ff4800"/>
    </linearGradient>
    <linearGradient id="linear-gradient-5" x1="39.9888" y1="81.6364" x2="39.9888" y2="26.3287" gradientTransform="translate(0 82) scale(1 -1)" gradientUnits="userSpaceOnUse">
      <stop offset="0" stop-color="#e4e4e4"/>
      <stop offset=".88" stop-color="#b6b8b8"/>
    </linearGradient>
  </defs>
  <path class="cls-8" d="M49.3074,7.426l1.9954,3.878c13.2245,4.739,22.3108,17.499,22.3108,31.6275,0,18.529-15.08,33.5997-33.6209,33.5997S6.3792,61.4605,6.3792,42.9315c0-14.1359,9.0863-26.8885,22.3108-31.6275l1.9955-3.8706C14.6703,11.6204,3.2719,26.1979,3.2719,42.9315c0,20.2363,16.4791,36.7049,36.7282,36.7049s36.728-16.4687,36.728-36.7049c0-16.7336-11.3982-31.3184-27.4208-35.5055Z"/>
  <g class="cls-3">
    <g>
      <path class="cls-1" d="M71.4482,42.1004c-.1767,2.3842-3.8657,12.2964-8.4016,12.2964-1.8408,0-2.2531-2.6933-2.555-4.6948-.8174,3.1936-6.4503,10.0963-10.6253,10.0963-7.5916,0-9.3587-16.0054-9.8742-18.1394-.5154,2.1266-2.2826,18.1394-9.8741,18.1394-4.175,0-9.808-6.8954-10.6253-10.0963-.3019,2.0015-.7068,4.6948-2.555,4.6948-4.5358,0-8.2249-9.9121-8.4016-12.2964-.972,1.435-.9572,7.2336.486,10.9497,4.8156,12.3992,16.8767,21.2074,30.9627,21.2074s26.1472-8.8082,30.9628-21.2074c1.4432-3.7161,1.4579-9.5073.486-10.9497h.0147Z"/>
      <path class="cls-5" d="M39.9991,59.8424c1.2518,2.2954,3.9762,5.7324,8.6445,5.7324s8.2985-4.8125,9.5134-6.8437c-.3902,1.4275-1.1781,4.4816,1.3622,4.4816,5.8244,0,10.0363-9.206,10.0363-9.206-4.5947,11.8331-16.111,20.2437-29.5564,20.2437s-24.9617-8.4106-29.5564-20.2437c0,0,4.2118,9.206,10.0363,9.206,2.5477,0,1.7524-3.0619,1.3621-4.4816,1.215,2.0312,4.7272,6.8437,9.5135,6.8437,4.6683,0,7.3854-3.4439,8.6445-5.7324Z"/>
      <path class="cls-4" d="M47.3996,70.1664c-2.8643,0-5.0954-.8904-7.4001-2.3249-2.3047,1.4275-4.5358,2.3249-7.4002,2.3249-4.3664,0-5.6918-1.288-7.2749-2.4651.0442,1.5011,1.5757,3.6206,3.1588,4.3855,3.5123,1.546,7.4591,2.1637,11.5163,2.1637s8.0039-.6254,11.5162-2.1637c1.5831-.7726,3.1074-2.8844,3.1589-4.3855-1.5832,1.1772-2.9085,2.4651-7.275,2.4651Z"/>
    </g>
  </g>
  <path class="cls-7" d="M35.7591,27.611l-4.5064,9.5442c-.1841.39-.2503.8315-.1767,1.2657l1.4285,8.6243c.0442.2797.4565.2797.5007,0l.7732-4.7021c.3166-1.95,1.3548-3.7162,2.9085-4.945l-.9278-9.7944v.0074Z"/>
  <path class="cls-7" d="M44.2419,27.611l4.5064,9.5442c.1841.39.2503.8315.1767,1.2657l-1.4285,8.6316c-.0442.2797-.4492.2797-.5007,0l-.7732-4.7095c-.3166-1.95-1.3548-3.7162-2.9085-4.945l.9278-9.7944v.0074Z"/>
  <path class="cls-6" d="M46.6562,12.636L40.4784.656c-.1988-.39-.751-.39-.9572,0l-6.1778,11.9726c-.2577.493-.3534,1.0597-.2724,1.6042l3.1146,21.8847-.4639,2.0457,1.6421,4.5035c.0368.103.1325.1693.2356.1693h4.7788c.1031,0,.1989-.0663.2357-.1693l1.642-4.5035-.4639-2.0457,3.1147-21.8847c.081-.5518-.0147-1.1111-.2725-1.6042l.0221.0074Z"/>
  <path class="cls-7" d="M39.7867,32.5116l-2.1943,5.4233c-.3387.8389-.405,1.7661-.1841,2.6418l2.3415,9.375c.0663.2575.4344.2575.4933,0l2.3415-9.375c.2209-.8756.1546-1.8029-.1841-2.6418l-2.1942-5.4233c-.081-.1913-.3535-.1913-.4271,0h.0074Z"/>
</svg>